HIERARCHY
ROOT ui
{
	 OFFSET 0 0 0
	 CHANNELS 3 XPosition YPosition Z Position
	 EndSite
	 {
	 OFFSET 0 -1 0
	 }
}
ROOT li
{
	 OFFSET 0 0 0
	 CHANNELS 3 XPosition YPosition Z Position
	 EndSite
	 {
	 OFFSET 0 -1 0
	 }
}
ROOT ul
{
	 OFFSET 0 0 0
	 CHANNELS 3 XPosition YPosition Z Position
	 EndSite
	 {
	 OFFSET 0 -1 0
	 }
}
ROOT ll
{
	 OFFSET 0 0 0
	 CHANNELS 3 XPosition YPosition Z Position
	 EndSite
	 {
	 OFFSET 0 -1 0
	 }
}
ROOT tt
{
	 OFFSET 0 0 0
	 CHANNELS 3 XPosition YPosition Z Position
	 EndSite
	 {
	 OFFSET 0 -1 0
	 }
}
ROOT tb
{
	 OFFSET 0 0 0
	 CHANNELS 3 XPosition YPosition Z Position
	 EndSite
	 {
	 OFFSET 0 -1 0
	 }
}
ROOT td
{
	 OFFSET 0 0 0
	 CHANNELS 3 XPosition YPosition Z Position
	 EndSite
	 {
	 OFFSET 0 -1 0
	 }
}
ROOT v
{
	 OFFSET 0 0 0
	 CHANNELS 3 XPosition YPosition Z Position
	 EndSite
	 {
	 OFFSET 0 -1 0
	 }
}
ROOT bn
{
	 OFFSET 0 0 0
	 CHANNELS 3 XPosition YPosition Z Position
	 EndSite
	 {
	 OFFSET 0 -1 0
	 }
}
MOTION
Frames: 29
Frame Time: 0.002
0.00768617582321167	0.0024339709281921387	0		0.5746546630859375	-2.406104248046875	0		-0.9797611694335937	0.06488990783691406	0		-0.5202908325195312	-2.499626220703125	0		1.6236424560546876	-0.741070068359375	0		3.402831787109375	-0.10307341766357422	0		4.7863427734375	-0.05631596755981445	0		5.641783203125	0.20518902587890625	0		-0.31096768188476565	5.88975439453125	0		
0.08084607696533203	4.5441699028015136E-4	0		0.5947258911132812	-2.41158740234375	0		-0.9835867919921875	0.06467073059082032	0		-0.589910400390625	-2.472223388671875	0		1.6138570556640626	-0.7352888793945312	0		3.355100341796875	-0.09296672821044921	0		4.7735341796875	-0.05457499313354492	0		5.6326328125	0.2047120361328125	0		-0.29768585205078124	5.887357421875	0		
1.392109990119934E-4	0.0019793479442596434	0		0.588929443359375	-2.41479345703125	0		-0.9913341674804688	0.06151499938964844	0		-0.5617288818359375	-2.47773291015625	0		1.6010172119140624	-0.746447509765625	0		3.3623203125	-0.09935231018066407	0		4.7808125	-0.0549888916015625	0		5.63348876953125	0.1902301788330078	0		-0.3012895202636719	5.8871494140625	0		
-0.006481224060058593	-0.0011778810024261474	0		0.5842752685546875	-2.416980712890625	0		-1.0699212646484375	0.062068950653076174	0		-0.6033728637695313	-2.47854296875	0		1.597412109375	-0.7466624145507812	0		3.35459228515625	-0.1135596160888672	0		4.76622021484375	-0.055154823303222654	0		5.624513671875	0.19161613464355468	0		-0.3388223571777344	5.88229638671875	0		
-0.009927894592285156	-0.0013360220193862915	0		0.5807890014648438	-2.4171484375	0		-0.9983704223632812	0.06120453643798828	0		-0.6048408813476562	-2.4767109375	0		1.5939532470703126	-0.7468468627929687	0		3.366229736328125	-0.10491795349121094	0		4.77868505859375	-0.06454508972167969	0		5.62495458984375	0.2032283935546875	0		-0.3762386474609375	5.87547216796875	0		
-0.015135184288024902	0.006553321838378906	0		0.5545367431640625	-2.41006494140625	0		-1.0726121826171875	0.0657757568359375	0		-0.6411129760742188	-2.471512939453125	0		1.596734375	-0.7390589599609375	0		3.34698291015625	-0.10094388580322265	0		4.76846728515625	-0.05767938232421875	0		5.62260986328125	0.2028600311279297	0		-0.34536892700195315	5.88201904296875	0		
0.05379590606689453	0.009755339622497559	0		0.57737890625	-2.41242529296875	0		-1.0007288818359374	0.06396340942382812	0		-0.6092816772460937	-2.47494384765625	0		1.593619873046875	-0.7391819458007812	0		3.368818115234375	-0.10733242034912109	0		4.76738134765625	-0.0558651008605957	0		5.62681396484375	0.20240380859375	0		-0.3133559265136719	5.885583984375	0		
-0.019223533630371093	-0.0016401089429855346	0		0.5724142456054687	-2.415486328125	0		-1.0136148071289062	0.06599864196777344	0		-0.5812874145507813	-2.482310302734375	0		1.584627197265625	-0.74721630859375	0		3.340969482421875	-0.10120478820800781	0		4.76938671875	-0.06504434204101563	0		5.6247392578125	0.20216084289550781	0		-0.3171816711425781	5.8865234375	0		
0.05011697387695312	0.0016131099462509155	0		0.5686749267578125	-2.41753076171875	0		-1.0103577880859376	0.06090283966064453	0		-0.5840081176757812	-2.4823525390625	0		1.581924560546875	-0.7472811279296875	0		3.343282958984375	-0.10033643341064453	0		4.76177880859375	-0.056094207763671876	0		5.619908203125	0.18820547485351563	0		-0.31981539916992185	5.886478515625	0		
-0.024391849517822264	-0.0017140569686889648	0		0.5132313232421875	-2.412047607421875	0		-1.0837884521484376	0.06557489776611328	0		-0.6214725341796875	-2.47903369140625	0		1.579444580078125	-0.7473209838867187	0		3.3317509765625	-0.10630409240722656	0		4.75728564453125	-0.058142471313476565	0		5.6210517578125	0.20184881591796874	0		-0.3553132019042969	5.87877587890625	0		
0.0533780517578125	-4.978300034999847E-4	0		0.568984619140625	-2.410621337890625	0		-1.0110469970703124	0.06384761810302735	0		-0.5889324340820312	-2.499374755859375	0		1.5862998046875	-0.7364271240234375	0		3.366590087890625	-0.09769500732421875	0		4.75503955078125	-0.05818391036987305	0		5.61944873046875	0.20176741027832032	0		-0.34141943359375	5.8886162109375	0		
-0.02562400817871094	0.0012604429721832274	0		0.5409849853515625	-2.4073623046875	0		-1.01306201171875	0.0638637580871582	0		-0.5877589721679688	-2.478391357421875	0		1.601240234375	-0.740591796875	0		3.32560498046875	-0.09432636260986328	0		4.75910107421875	-0.05026143264770508	0		5.61801025390625	0.201726806640625	0		-0.35948590087890625	5.8797841796875	0		
0.04957675552368164	-4.646419882774353E-4	0		0.5600889892578125	-2.417544921875	0		-1.0188765869140626	0.06093153381347656	0		-0.62756494140625	-2.4789951171875	0		1.5733839111328125	-0.7473226318359375	0		3.334759765625	-0.10042565155029297	0		4.74225732421875	-0.056114845275878907	0		5.607416015625	0.1898303680419922	0		-0.3271861572265625	5.885478515625	0		
-0.03199918556213379	-0.0016515660285949707	0		0.5315498657226563	-2.414249755859375	0		-1.0263876953125	0.06602830505371093	0		-0.5961849975585938	-2.48427880859375	0		1.5928197021484376	-0.7474984130859375	0		3.328189697265625	-0.1013552017211914	0		4.74069677734375	-0.05609854888916015	0		5.606302734375	0.1898534393310547	0		-0.32872360229492187	5.8855146484375	0		
0.04364626312255859	-0.003358059883117676	0		0.5571708984375	-2.41747119140625	0		-1.0967740478515624	0.06174621200561523	0		-0.6654623413085937	-2.476572509765625	0		1.570477294921875	-0.7472559204101562	0		3.34685693359375	-0.10051709747314454	0		4.7483359375	-0.058157497406005856	0		5.6082470703125	0.20194094848632813	0		-0.3991507873535156	5.87523095703125	0		
-0.03144179344177246	0.0014109549522399903	0		0.53310400390625	-2.4102001953125	0		-1.0938656005859375	0.06575843048095703	0		-0.629600341796875	-2.476882568359375	0		1.575422607421875	-0.7392695922851562	0		3.3167373046875	-0.09919378662109375	0		4.742283203125	-0.050071464538574216	0		5.6138603515625	0.2018515625	0		-0.3652303161621094	5.878939453125	0		
0.044614925384521484	-2.860940098762512E-4	0		0.5581494750976562	-2.4124013671875	0		-1.0198087158203124	0.06408258819580079	0		-0.6305343017578126	-2.476828857421875	0		1.5714527587890625	-0.7431900634765625	0		3.3488447265625	-0.09546804046630859	0		4.74135302734375	-0.0500264892578125	0		5.60677734375	0.2020788116455078	0		-0.33208407592773437	5.88566162109375	0		
-0.03614160537719727	-0.0014521600008010865	0		0.554358154296875	-2.417317626953125	0		-1.0245784912109375	0.061177249908447265	0		-0.598327392578125	-2.4820947265625	0		1.5676724853515625	-0.747107177734375	0		3.353035400390625	-0.1024643325805664	0		4.7475537109375	-0.05604341888427734	0		5.60975927734375	0.18824232482910155	0		-0.3328202209472656	5.88571630859375	0		
0.04028038024902344	-0.003146929979324341	0		0.5517743530273438	-2.419242919921875	0		-1.03109423828125	0.06629045104980469	0		-0.6358803100585938	-2.48067919921875	0		1.56710791015625	-0.7470519409179688	0		3.310453369140625	-0.10399983215332032	0		4.7359892578125	-0.05588080215454101	0		5.60584619140625	0.20226202392578124	0		-0.33338534545898435	5.885771484375	0		
-0.037108314514160155	-0.0013430500030517578	0		0.553393798828125	-2.4172080078125	0		-1.0255452880859375	0.061285408020019534	0		-0.5992916870117188	-2.481986083984375	0		1.56670654296875	-0.7469965209960937	0		3.329972412109375	-0.11213723754882812	0		4.74150927734375	-0.06388061904907226	0		5.61197900390625	0.20221231079101562	0		-0.400916015625	5.873478515625	0		
0.042653583526611326	-6.998399645090104E-5	0		0.5322421264648437	-2.406950927734375	0		-1.0967568359375	0.06602705383300782	0		-0.6304719848632813	-2.47463330078125	0		1.572531494140625	-0.739000732421875	0		3.355863525390625	-0.09733375549316406	0		4.7483720703125	-0.05188979721069336	0		5.6189091796875	0.19695919799804687	0		-0.3320946350097656	5.881857421875	0		
-0.034453369140625	0.0017292660474777222	0		0.5560772094726563	-2.412133544921875	0		-1.021890625	0.06434429168701172	0		-0.5986370849609375	-2.479896240234375	0		1.5693740234375	-0.742918212890625	0		3.34271484375	-0.10015009307861328	0		4.746212890625	-0.055810127258300785	0		5.6117119140625	0.20242410278320314	0		-0.334198486328125	5.88492578125	0		
0.04253069686889648	2.6528000831604002E-5	0		0.5260631713867188	-2.41379345703125	0		-1.0318734130859375	0.06648538970947265	0		-0.6346215209960937	-2.4785009765625	0		1.5663345947265626	-0.7468379516601562	0		3.30967529296875	-0.10377306365966797	0		4.7352109375	-0.05564358139038086	0		5.61171044921875	0.20253060913085938	0		-0.3483233642578125	5.8741083984375	0		
-0.0373863410949707	-0.0011519839763641357	0		0.5531386108398437	-2.41701123046875	0		-1.0317750244140624	0.0665252456665039	0		-0.6035849609375	-2.48576123046875	0		1.564406494140625	-0.7497706298828125	0		3.33876318359375	-0.10500215911865235	0		4.7463095703125	-0.05569329833984375	0		5.608873046875	0.18886178588867186	0		-0.3681929016113281	5.8793447265625	0		
-0.03720270538330078	-0.0011134669780731201	0		0.5003809204101562	-2.411455810546875	0		-1.100636962890625	0.062231971740722654	0		-0.6363433837890625	-2.48040380859375	0		1.5666214599609376	-0.7467467651367188	0		3.32494775390625	-0.10481700134277344	0		4.74141552734375	-0.06359092330932617	0		5.6054931640625	0.20288168334960938	0		-0.40108432006835937	5.873703125	0		
0.04306845855712891	1.422940045595169E-4	0		0.5546121826171875	-2.4149453125	0		-1.021356201171875	0.06449410247802734	0		-0.63204150390625	-2.4764111328125	0		1.5699180908203125	-0.7427374877929688	0		3.339202880859375	-0.10490901947021485	0		4.7398076171875	-0.04952364730834961	0		5.61209521484375	0.2028182678222656	0		-0.3526840515136719	5.8902685546875	0		
-0.033600959777832035	0.0019192650318145751	0		0.5309869995117188	-2.409681884765625	0		-1.0210391845703124	0.064519287109375	0		-0.5977470092773437	-2.47971484375	0		1.5702376708984376	-0.742703857421875	0		3.332627685546875	-0.09380216217041015	0		4.745046875	-0.05752796936035156	0		5.6123212890625	0.20289854431152343	0		-0.33244522094726564	5.8841015625	0		
0.040725833892822264	-0.002776767015457153	0		0.5802653198242187	-2.4201328125	0		-1.0206702270507813	0.06453846740722656	0		-0.6333574829101563	-2.478344482421875	0		1.56757080078125	-0.7466460571289063	0		3.3439384765625	-0.0998739013671875	0		4.747435546875	-0.05550757217407227	0		5.6125849609375	0.202972412109375	0		-0.33308746337890627	5.8851328125	0		
-0.035850471496582034	-0.0010120359659194947	0		0.5277462158203124	-2.41359912109375	0		-1.030240234375	0.066648193359375	0		-0.602006591796875	-2.485630859375	0		1.565955078125	-0.7496033325195313	0		3.311311767578125	-0.10352291107177734	0		4.74784619140625	-0.055471576690673825	0		5.6099697265625	0.18926788330078126	0		-0.33270089721679685	5.8851484375	0		
